[PACKET]
pts=-128
pts_time=-0.002902
dts=-128
dts_time=-0.002902
duration=128
duration_time=0.002902
flags=K__
[SIDE_DATA]
side_data_type=Strings Metadata
[/SIDE_DATA]
[/PACKET]
[PACKET]
pts=0
pts_time=0.000000
dts=0
dts_time=0.000000
duration=576
duration_time=0.013061
flags=K__
[/PACKET]
[PACKET]
pts=576
pts_time=0.013061
dts=576
dts_time=0.013061
duration=1024
duration_time=0.023220
flags=K__
[/PACKET]
[PACKET]
pts=1600
pts_time=0.036281
dts=1600
dts_time=0.036281
duration=1024
duration_time=0.023220
flags=K__
[/PACKET]
[PACKET]
pts=2624
pts_time=0.059501
dts=2624
dts_time=0.059501
duration=1024
duration_time=0.023220
flags=K__
[/PACKET]
[STREAM]
codec_name=vorbis
initial_padding=0
[/STREAM]
[FORMAT]
filename=ogg-vorbis-libvorbis-1s
nb_streams=1
nb_programs=0
nb_stream_groups=0
format_name=ogg
start_time=-0.002902
duration=1.002902
probe_score=100
[/FORMAT]
